<svg width="32" height="32" viewBox="0 0 32 32" fill="none" xmlns="http://www.w3.org/2000/svg">
<path d="M16 27.3122C9.75204 27.3122 4.68778 22.248 4.68778 16C4.68778 9.75204 9.75204 4.68778 16 4.68778C22.248 4.68778 27.3122 9.75204 27.3122 16C27.3122 22.248 22.248 27.3122 16 27.3122Z" fill="black"/>
<path fill-rule="evenodd" clip-rule="evenodd" d="M16 16L0 15.9014L0.0144794 15.3131L16 16Z" fill="#FEFEFF"/>
<path fill-rule="evenodd" clip-rule="evenodd" d="M16 16L0.0117646 15.4109L0.0361991 14.9204L16 16Z" fill="#FDFEFF"/>
<path fill-rule="evenodd" clip-rule="evenodd" d="M16 16L0.0307695 15.019L0.0669683 14.5294L16 16Z" fill="#FCFDFF"/>
<path fill-rule="evenodd" clip-rule="evenodd" d="M16 16L0.0597286 14.6272L0.107692 14.1385L16 16Z" fill="#FBFCFF"/>
<path fill-rule="evenodd" clip-rule="evenodd" d="M16 16L0.0986425 14.2362L0.158371 13.7493L16 16Z" fill="#FAFCFF"/>
<path fill-rule="evenodd" clip-rule="evenodd" d="M16 16L0.146606 13.8471L0.2181 13.3611L16 16Z" fill="#F9FBFF"/>
<path fill-rule="evenodd" clip-rule="evenodd" d="M16 16L0.204525 13.4579L0.287783 12.9747L16 16Z" fill="#F8FAFF"/>
<path fill-rule="evenodd" clip-rule="evenodd" d="M16 16L0.271493 13.0715L0.366516 12.59L16 16Z" fill="#F7FAFF"/>
<path fill-rule="evenodd" clip-rule="evenodd" d="M16 16L0.347511 12.6869L0.455204 12.2072L16 16Z" fill="#F6F9FF"/>
<path fill-rule="evenodd" clip-rule="evenodd" d="M16 16L0.433484 12.3032L0.552941 11.8272L16 16Z" fill="#F5F8FF"/>
<path fill-rule="evenodd" clip-rule="evenodd" d="M16 16L0.529412 11.9222L0.659728 11.4489L16 16Z" fill="#F4F8FF"/>
<path fill-rule="evenodd" clip-rule="evenodd" d="M16 16L0.633484 11.5439L0.77647 11.0742L16 16Z" fill="#F3F7FF"/>
<path fill-rule="evenodd" clip-rule="evenodd" d="M16 16L0.747511 11.1683L0.902263 10.7023L16 16Z" fill="#F2F6FF"/>
<path fill-rule="evenodd" clip-rule="evenodd" d="M16 16L0.870588 10.7955L1.0362 10.333L16 16Z" fill="#F1F6FF"/>
<path fill-rule="evenodd" clip-rule="evenodd" d="M16 16L1.00362 10.4253L1.18009 9.96742L16 16Z" fill="#F0F5FF"/>
<path fill-rule="evenodd" clip-rule="evenodd" d="M16 16L1.1448 10.0588L1.33213 9.60543L16 16Z" fill="#EFF4FF"/>
<path fill-rule="evenodd" clip-rule="evenodd" d="M16 16L1.29502 9.69593L1.49412 9.24796L16 16Z" fill="#EEF3FF"/>
<path fill-rule="evenodd" clip-rule="evenodd" d="M16 16L1.4543 9.33756L1.66425 8.89412L16 16Z" fill="#EDF3FF"/>
<path fill-rule="evenodd" clip-rule="evenodd" d="M16 16L1.62172 8.98281L1.84253 8.54389L16 16Z" fill="#ECF2FF"/>
<path fill-rule="evenodd" clip-rule="evenodd" d="M16 16L1.79819 8.63167L2.02986 8.1991L16 16Z" fill="#EBF1FF"/>
<path fill-rule="evenodd" clip-rule="evenodd" d="M16 16L1.98371 8.28597L2.22534 7.85792L16 16Z" fill="#EAF1FF"/>
<path fill-rule="evenodd" clip-rule="evenodd" d="M16 16L2.17738 7.94389L2.42986 7.52308L16 16Z" fill="#E9F0FF"/>
<path fill-rule="evenodd" clip-rule="evenodd" d="M16 16L2.37919 7.60724L2.64163 7.19186L16 16Z" fill="#E8EFFF"/>
<path fill-rule="evenodd" clip-rule="evenodd" d="M16 16L2.58914 7.27511L2.86244 6.86697L16 16Z" fill="#E7EFFF"/>
<path fill-rule="evenodd" clip-rule="evenodd" d="M16 16L2.80724 6.94842L3.08959 6.54751L16 16Z" fill="#E6EEFF"/>
<path fill-rule="evenodd" clip-rule="evenodd" d="M16 16L3.03348 6.62805L3.32579 6.23348L16 16Z" fill="#E5EDFF"/>
<path fill-rule="evenodd" clip-rule="evenodd" d="M16 16L3.26697 6.31222L3.56923 5.92489L16 16Z" fill="#E4EDFF"/>
<path fill-rule="evenodd" clip-rule="evenodd" d="M16 16L3.5086 6.00272L3.81991 5.62353L16 16Z" fill="#E3ECFF"/>
<path fill-rule="evenodd" clip-rule="evenodd" d="M16 16L3.75837 5.69955L4.07873 5.3276L16 16Z" fill="#E2EBFF"/>
<path fill-rule="evenodd" clip-rule="evenodd" d="M16 16L4.01448 5.40181L4.34389 5.03801L16 16Z" fill="#E1EBFF"/>
<path fill-rule="evenodd" clip-rule="evenodd" d="M16 16L4.27783 5.11131L4.61629 4.75566L16 16Z" fill="#E0EAFF"/>
<path fill-rule="evenodd" clip-rule="evenodd" d="M16 16L4.54842 4.82715L4.89593 4.47964L16 16Z" fill="#DFE9FF"/>
<path fill-rule="evenodd" clip-rule="evenodd" d="M16 16L4.82715 4.54842L5.1819 4.21086L16 16Z" fill="#DEE9FF"/>
<path fill-rule="evenodd" clip-rule="evenodd" d="M16 16L5.11131 4.27783L5.47511 3.94842L16 16Z" fill="#DDE8FF"/>
<path fill-rule="evenodd" clip-rule="evenodd" d="M16 16L5.40181 4.01448L5.77376 3.69412L16 16Z" fill="#DCE7FF"/>
<path fill-rule="evenodd" clip-rule="evenodd" d="M16 16L5.69955 3.75837L6.07873 3.44706L16 16Z" fill="#DBE7FF"/>
<path fill-rule="evenodd" clip-rule="evenodd" d="M16 16L6.00272 3.5086L6.39005 3.20724L16 16Z" fill="#DAE6FF"/>
<path fill-rule="evenodd" clip-rule="evenodd" d="M16 16L6.31222 3.26697L6.70679 2.97466L16 16Z" fill="#D9E5FF"/>
<path fill-rule="evenodd" clip-rule="evenodd" d="M16 16L6.62805 3.03348L7.02896 2.75113L16 16Z" fill="#D8E5FF"/>
<path fill-rule="evenodd" clip-rule="evenodd" d="M16 16L6.94842 2.80724L7.35656 2.53484L16 16Z" fill="#D7E4FF"/>
<path fill-rule="evenodd" clip-rule="evenodd" d="M16 16L7.27511 2.58914L7.6905 2.3267L16 16Z" fill="#D6E3FF"/>
<path fill-rule="evenodd" clip-rule="evenodd" d="M16 16L7.60724 2.37919L8.02805 2.1267L16 16Z" fill="#D5E3FF"/>
<path fill-rule="evenodd" clip-rule="evenodd" d="M16 16L7.94389 2.17738L8.37104 1.93575L16 16Z" fill="#D4E2FF"/>
<path fill-rule="evenodd" clip-rule="evenodd" d="M16 16L8.28597 1.98371L8.71855 1.75204L16 16Z" fill="#D3E1FF"/>
<path fill-rule="evenodd" clip-rule="evenodd" d="M16 16L8.63167 1.79819L9.07059 1.57828L16 16Z" fill="#D2E0FF"/>
<path fill-rule="evenodd" clip-rule="evenodd" d="M16 16L8.98281 1.62172L9.42624 1.41267L16 16Z" fill="#D1E0FF"/>
<path fill-rule="evenodd" clip-rule="evenodd" d="M16 16L9.33756 1.4543L9.78643 1.2552L16 16Z" fill="#D0DFFF"/>
<path fill-rule="evenodd" clip-rule="evenodd" d="M16 16L9.69593 1.29502L10.1502 1.10679L16 16Z" fill="#CFDEFF"/>
<path fill-rule="evenodd" clip-rule="evenodd" d="M16 16L10.0588 1.1448L10.5176 0.968326L16 16Z" fill="#CEDEFF"/>
<path fill-rule="evenodd" clip-rule="evenodd" d="M16 16L10.4253 1.00362L10.8878 0.838009L16 16Z" fill="#CDDDFF"/>
<path fill-rule="evenodd" clip-rule="evenodd" d="M16 16L10.7955 0.870588L11.2615 0.717647L16 16Z" fill="#CCDCFF"/>
<path fill-rule="evenodd" clip-rule="evenodd" d="M16 16L11.1683 0.747511L11.638 0.60543L16 16Z" fill="#CBDCFF"/>
<path fill-rule="evenodd" clip-rule="evenodd" d="M16 16L11.5439 0.633484L12.0172 0.503168L16 16Z" fill="#CADBFF"/>
<path fill-rule="evenodd" clip-rule="evenodd" d="M16 16L11.9222 0.529412L12.3982 0.409955L16 16Z" fill="#C9DAFF"/>
<path fill-rule="evenodd" clip-rule="evenodd" d="M16 16L12.3032 0.433484L12.7819 0.326697L16 16Z" fill="#C8DAFF"/>
<path fill-rule="evenodd" clip-rule="evenodd" d="M16 16L12.6869 0.347511L13.1674 0.252489L16 16Z" fill="#C7D9FF"/>
<path fill-rule="evenodd" clip-rule="evenodd" d="M16 16L13.0715 0.271493L13.5548 0.18733L16 16Z" fill="#C6D8FF"/>
<path fill-rule="evenodd" clip-rule="evenodd" d="M16 16L13.4579 0.204525L13.9439 0.132127L16 16Z" fill="#C5D8FF"/>
<path fill-rule="evenodd" clip-rule="evenodd" d="M16 16L13.8471 0.146606L14.3339 0.0868779L16 16Z" fill="#C4D7FF"/>
<path fill-rule="evenodd" clip-rule="evenodd" d="M16 16L14.2362 0.0986425L14.7249 0.0506785L16 16Z" fill="#C3D6FF"/>
<path fill-rule="evenodd" clip-rule="evenodd" d="M16 16L14.6272 0.0597286L15.1167 0.0235292L16 16Z" fill="#C2D6FF"/>
<path fill-rule="evenodd" clip-rule="evenodd" d="M16 16L15.019 0.0307695L15.5095 0.00723971L16 16Z" fill="#C1D5FF"/>
<path fill-rule="evenodd" clip-rule="evenodd" d="M16 16L15.4109 0.0117646L15.9014 0L16 16Z" fill="#C0D4FF"/>
<path fill-rule="evenodd" clip-rule="evenodd" d="M16 16L15.8036 0.00181007H16.2941L16 16Z" fill="#BFD4FF"/>
<path fill-rule="evenodd" clip-rule="evenodd" d="M16 16L16.1964 0.00181007L16.6869 0.0144794L16 16Z" fill="#BED3FF"/>
<path fill-rule="evenodd" clip-rule="evenodd" d="M16 16L16.5891 0.0117646L17.0787 0.0361991L16 16Z" fill="#BDD2FF"/>
<path fill-rule="evenodd" clip-rule="evenodd" d="M16 16L16.981 0.0307695L17.4706 0.0669683L16 16Z" fill="#BCD2FF"/>
<path fill-rule="evenodd" clip-rule="evenodd" d="M16 16L17.3729 0.0597286L17.8615 0.107692L16 16Z" fill="#BBD1FF"/>
<path fill-rule="evenodd" clip-rule="evenodd" d="M16 16L17.7629 0.0986425L18.2507 0.158371L16 16Z" fill="#BAD0FF"/>
<path fill-rule="evenodd" clip-rule="evenodd" d="M16 16L18.1529 0.146606L18.6389 0.2181L16 16Z" fill="#B9D0FF"/>
<path fill-rule="evenodd" clip-rule="evenodd" d="M16 16L18.5412 0.204525L19.0253 0.287783L16 16Z" fill="#B8CFFF"/>
<path fill-rule="evenodd" clip-rule="evenodd" d="M16 16L18.9285 0.271493L19.41 0.366516L16 16Z" fill="#B7CEFF"/>
<path fill-rule="evenodd" clip-rule="evenodd" d="M16 16L19.3131 0.347511L19.7928 0.455204L16 16Z" fill="#B6CDFF"/>
<path fill-rule="evenodd" clip-rule="evenodd" d="M16 16L19.6968 0.433484L20.1729 0.552941L16 16Z" fill="#B5CDFF"/>
<path fill-rule="evenodd" clip-rule="evenodd" d="M16 16L20.0778 0.529412L20.5502 0.659728L16 16Z" fill="#B4CCFF"/>
<path fill-rule="evenodd" clip-rule="evenodd" d="M16 16L20.4561 0.633484L20.9258 0.77647L16 16Z" fill="#B3CBFF"/>
<path fill-rule="evenodd" clip-rule="evenodd" d="M16 16L20.8317 0.747511L21.2977 0.902263L16 16Z" fill="#B2CBFF"/>
<path fill-rule="evenodd" clip-rule="evenodd" d="M16 16L21.2045 0.870588L21.667 1.0362L16 16Z" fill="#B1CAFF"/>
<path fill-rule="evenodd" clip-rule="evenodd" d="M16 16L21.5747 1.00362L22.0326 1.18009L16 16Z" fill="#B0C9FF"/>
<path fill-rule="evenodd" clip-rule="evenodd" d="M16 16L21.9403 1.1448L22.3946 1.33213L16 16Z" fill="#AFC9FF"/>
<path fill-rule="evenodd" clip-rule="evenodd" d="M16 16L22.3032 1.29502L22.752 1.49412L16 16Z" fill="#AEC8FF"/>
<path fill-rule="evenodd" clip-rule="evenodd" d="M16 16L22.6624 1.4543L23.1059 1.66425L16 16Z" fill="#ADC7FF"/>
<path fill-rule="evenodd" clip-rule="evenodd" d="M16 16L23.0172 1.62172L23.4561 1.84253L16 16Z" fill="#ACC7FF"/>
<path fill-rule="evenodd" clip-rule="evenodd" d="M16 16L23.3683 1.79819L23.8009 2.02986L16 16Z" fill="#ABC6FF"/>
<path fill-rule="evenodd" clip-rule="evenodd" d="M16 16L23.714 1.98371L24.1421 2.22534L16 16Z" fill="#AAC5FF"/>
<path fill-rule="evenodd" clip-rule="evenodd" d="M16 16L24.0561 2.17738L24.4769 2.42986L16 16Z" fill="#A9C5FF"/>
<path fill-rule="evenodd" clip-rule="evenodd" d="M16 16L24.3928 2.37919L24.8072 2.64163L16 16Z" fill="#A8C4FF"/>
<path fill-rule="evenodd" clip-rule="evenodd" d="M16 16L24.7249 2.58914L25.133 2.86244L16 16Z" fill="#A7C3FF"/>
<path fill-rule="evenodd" clip-rule="evenodd" d="M16 16L25.0516 2.80724L25.4525 3.08959L16 16Z" fill="#A6C3FF"/>
<path fill-rule="evenodd" clip-rule="evenodd" d="M16 16L25.3719 3.03348L25.7665 3.32579L16 16Z" fill="#A5C2FF"/>
<path fill-rule="evenodd" clip-rule="evenodd" d="M16 16L25.6878 3.26697L26.0742 3.56923L16 16Z" fill="#A4C1FF"/>
<path fill-rule="evenodd" clip-rule="evenodd" d="M16 16L25.9973 3.5086L26.3765 3.81991L16 16Z" fill="#A3C1FF"/>
<path fill-rule="evenodd" clip-rule="evenodd" d="M16 16L26.3005 3.75837L26.6724 4.07873L16 16Z" fill="#A2C0FF"/>
<path fill-rule="evenodd" clip-rule="evenodd" d="M16 16L26.5982 4.01448L26.962 4.34389L16 16Z" fill="#A1BFFF"/>
<path fill-rule="evenodd" clip-rule="evenodd" d="M16 16L26.8887 4.27783L27.2443 4.61629L16 16Z" fill="#A0BFFF"/>
<path fill-rule="evenodd" clip-rule="evenodd" d="M16 16L27.1729 4.54842L27.5204 4.89593L16 16Z" fill="#9FBEFF"/>
<path fill-rule="evenodd" clip-rule="evenodd" d="M16 16L27.4507 4.82715L27.7891 5.1819L16 16Z" fill="#9EBDFF"/>
<path fill-rule="evenodd" clip-rule="evenodd" d="M16 16L27.7222 5.11131L28.0516 5.47511L16 16Z" fill="#9DBDFF"/>
<path fill-rule="evenodd" clip-rule="evenodd" d="M16 16L27.9855 5.40181L28.3059 5.77376L16 16Z" fill="#9CBCFF"/>
<path fill-rule="evenodd" clip-rule="evenodd" d="M16 16L28.2416 5.69955L28.5529 6.07873L16 16Z" fill="#9BBBFF"/>
<path fill-rule="evenodd" clip-rule="evenodd" d="M16 16L28.4914 6.00272L28.7928 6.39005L16 16Z" fill="#9ABAFF"/>
<path fill-rule="evenodd" clip-rule="evenodd" d="M16 16L28.733 6.31222L29.0253 6.70679L16 16Z" fill="#99BAFF"/>
<path fill-rule="evenodd" clip-rule="evenodd" d="M16 16L28.9665 6.62805L29.2489 7.02896L16 16Z" fill="#98B9FF"/>
<path fill-rule="evenodd" clip-rule="evenodd" d="M16 16L29.1928 6.94842L29.4652 7.35656L16 16Z" fill="#97B8FF"/>
<path fill-rule="evenodd" clip-rule="evenodd" d="M16 16L29.4109 7.27511L29.6733 7.6905L16 16Z" fill="#96B8FF"/>
<path fill-rule="evenodd" clip-rule="evenodd" d="M16 16L29.6208 7.60724L29.8733 8.02805L16 16Z" fill="#95B7FF"/>
<path fill-rule="evenodd" clip-rule="evenodd" d="M16 16L29.8226 7.94389L30.0643 8.37104L16 16Z" fill="#94B6FF"/>
<path fill-rule="evenodd" clip-rule="evenodd" d="M16 16L30.0163 8.28597L30.2471 8.71855L16 16Z" fill="#93B6FF"/>
<path fill-rule="evenodd" clip-rule="evenodd" d="M16 16L30.2009 8.63167L30.4217 9.07059L16 16Z" fill="#92B5FF"/>
<path fill-rule="evenodd" clip-rule="evenodd" d="M16 16L30.3783 8.98281L30.5873 9.42624L16 16Z" fill="#91B4FF"/>
<path fill-rule="evenodd" clip-rule="evenodd" d="M16 16L30.5457 9.33756L30.7448 9.78643L16 16Z" fill="#90B4FF"/>
<path fill-rule="evenodd" clip-rule="evenodd" d="M16 16L30.705 9.69593L30.8923 10.1502L16 16Z" fill="#8FB3FF"/>
<path fill-rule="evenodd" clip-rule="evenodd" d="M16 16L30.8552 10.0588L31.0317 10.5176L16 16Z" fill="#8EB2FF"/>
<path fill-rule="evenodd" clip-rule="evenodd" d="M16 16L30.9964 10.4253L31.162 10.8878L16 16Z" fill="#8DB2FF"/>
<path fill-rule="evenodd" clip-rule="evenodd" d="M16 16L31.1285 10.7955L31.2824 11.2615L16 16Z" fill="#8CB1FF"/>
<path fill-rule="evenodd" clip-rule="evenodd" d="M16 16L31.2516 11.1683L31.3946 11.638L16 16Z" fill="#8BB0FF"/>
<path fill-rule="evenodd" clip-rule="evenodd" d="M16 16L31.3656 11.5439L31.4968 12.0172L16 16Z" fill="#8AB0FF"/>
<path fill-rule="evenodd" clip-rule="evenodd" d="M16 16L31.4706 11.9222L31.59 12.3982L16 16Z" fill="#89AFFF"/>
<path fill-rule="evenodd" clip-rule="evenodd" d="M16 16L31.5665 12.3032L31.6733 12.7819L16 16Z" fill="#88AEFF"/>
<path fill-rule="evenodd" clip-rule="evenodd" d="M16 16L31.6516 12.6869L31.7475 13.1674L16 16Z" fill="#87AEFF"/>
<path fill-rule="evenodd" clip-rule="evenodd" d="M16 16L31.7285 13.0715L31.8127 13.5548L16 16Z" fill="#86ADFF"/>
<path fill-rule="evenodd" clip-rule="evenodd" d="M16 16L31.7955 13.4579L31.8679 13.9439L16 16Z" fill="#85ACFF"/>
<path fill-rule="evenodd" clip-rule="evenodd" d="M16 16L31.8534 13.8471L31.9131 14.3339L16 16Z" fill="#84ACFF"/>
<path fill-rule="evenodd" clip-rule="evenodd" d="M16 16L31.9014 14.2362L31.9493 14.7249L16 16Z" fill="#83ABFF"/>
<path fill-rule="evenodd" clip-rule="evenodd" d="M16 16L31.9403 14.6272L31.9765 15.1167L16 16Z" fill="#82AAFF"/>
<path fill-rule="evenodd" clip-rule="evenodd" d="M16 16L31.9692 15.019L31.9928 15.5095L16 16Z" fill="#81AAFF"/>
<path fill-rule="evenodd" clip-rule="evenodd" d="M16 16L31.9882 15.4109L32 15.9014L16 16Z" fill="#80A9FF"/>
<path fill-rule="evenodd" clip-rule="evenodd" d="M16 16L31.9973 15.8036V16.2941L16 16Z" fill="#7FA8FF"/>
<path fill-rule="evenodd" clip-rule="evenodd" d="M16 16L31.9973 16.1964L31.9855 16.6869L16 16Z" fill="#7EA7FF"/>
<path fill-rule="evenodd" clip-rule="evenodd" d="M16 16L31.9882 16.5891L31.9638 17.0787L16 16Z" fill="#7DA7FF"/>
<path fill-rule="evenodd" clip-rule="evenodd" d="M16 16L31.9692 16.981L31.933 17.4706L16 16Z" fill="#7CA6FF"/>
<path fill-rule="evenodd" clip-rule="evenodd" d="M16 16L31.9403 17.3729L31.8923 17.8615L16 16Z" fill="#7BA5FF"/>
<path fill-rule="evenodd" clip-rule="evenodd" d="M16 16L31.9014 17.7629L31.8416 18.2507L16 16Z" fill="#7AA5FF"/>
<path fill-rule="evenodd" clip-rule="evenodd" d="M16 16L31.8534 18.1529L31.781 18.6389L16 16Z" fill="#79A4FF"/>
<path fill-rule="evenodd" clip-rule="evenodd" d="M16 16L31.7955 18.5412L31.7122 19.0253L16 16Z" fill="#78A3FF"/>
<path fill-rule="evenodd" clip-rule="evenodd" d="M16 16L31.7285 18.9285L31.6326 19.41L16 16Z" fill="#77A3FF"/>
<path fill-rule="evenodd" clip-rule="evenodd" d="M16 16L31.6516 19.3131L31.5448 19.7928L16 16Z" fill="#76A2FF"/>
<path fill-rule="evenodd" clip-rule="evenodd" d="M16 16L31.5665 19.6968L31.4471 20.1729L16 16Z" fill="#75A1FF"/>
<path fill-rule="evenodd" clip-rule="evenodd" d="M16 16L31.4706 20.0778L31.3403 20.5502L16 16Z" fill="#74A1FF"/>
<path fill-rule="evenodd" clip-rule="evenodd" d="M16 16L31.3656 20.4561L31.2235 20.9258L16 16Z" fill="#73A0FF"/>
<path fill-rule="evenodd" clip-rule="evenodd" d="M16 16L31.2516 20.8317L31.0977 21.2977L16 16Z" fill="#729FFF"/>
<path fill-rule="evenodd" clip-rule="evenodd" d="M16 16L31.1285 21.2045L30.9638 21.667L16 16Z" fill="#719FFF"/>
<path fill-rule="evenodd" clip-rule="evenodd" d="M16 16L30.9964 21.5747L30.8199 22.0326L16 16Z" fill="#709EFF"/>
<path fill-rule="evenodd" clip-rule="evenodd" d="M16 16L30.8552 21.9403L30.667 22.3946L16 16Z" fill="#6F9DFF"/>
<path fill-rule="evenodd" clip-rule="evenodd" d="M16 16L30.705 22.3032L30.5059 22.752L16 16Z" fill="#6E9DFF"/>
<path fill-rule="evenodd" clip-rule="evenodd" d="M16 16L30.5457 22.6624L30.3357 23.1059L16 16Z" fill="#6D9CFF"/>
<path fill-rule="evenodd" clip-rule="evenodd" d="M16 16L30.3783 23.0172L30.1575 23.4561L16 16Z" fill="#6C9BFF"/>
<path fill-rule="evenodd" clip-rule="evenodd" d="M16 16L30.2009 23.3683L29.9701 23.8009L16 16Z" fill="#6B9BFF"/>
<path fill-rule="evenodd" clip-rule="evenodd" d="M16 16L30.0163 23.714L29.7747 24.1421L16 16Z" fill="#6A9AFF"/>
<path fill-rule="evenodd" clip-rule="evenodd" d="M16 16L29.8226 24.0561L29.5701 24.4769L16 16Z" fill="#6999FF"/>
<path fill-rule="evenodd" clip-rule="evenodd" d="M16 16L29.6208 24.3928L29.3584 24.8072L16 16Z" fill="#6899FF"/>
<path fill-rule="evenodd" clip-rule="evenodd" d="M16 16L29.4109 24.7249L29.1376 25.133L16 16Z" fill="#6798FF"/>
<path fill-rule="evenodd" clip-rule="evenodd" d="M16 16L29.1928 25.0516L28.9104 25.4525L16 16Z" fill="#6697FF"/>
<path fill-rule="evenodd" clip-rule="evenodd" d="M16 16L28.9665 25.3719L28.6742 25.7665L16 16Z" fill="#6597FF"/>
<path fill-rule="evenodd" clip-rule="evenodd" d="M16 16L28.733 25.6878L28.4308 26.0742L16 16Z" fill="#6496FF"/>
<path fill-rule="evenodd" clip-rule="evenodd" d="M16 16L28.4914 25.9973L28.1801 26.3765L16 16Z" fill="#6395FF"/>
<path fill-rule="evenodd" clip-rule="evenodd" d="M16 16L28.2416 26.3005L27.9213 26.6724L16 16Z" fill="#6294FF"/>
<path fill-rule="evenodd" clip-rule="evenodd" d="M16 16L27.9855 26.5982L27.6561 26.962L16 16Z" fill="#6194FF"/>
<path fill-rule="evenodd" clip-rule="evenodd" d="M16 16L27.7222 26.8887L27.3837 27.2443L16 16Z" fill="#6093FF"/>
<path fill-rule="evenodd" clip-rule="evenodd" d="M16 16L27.4507 27.1729L27.1041 27.5204L16 16Z" fill="#5F92FF"/>
<path fill-rule="evenodd" clip-rule="evenodd" d="M16 16L27.1729 27.4507L26.8181 27.7891L16 16Z" fill="#5E92FF"/>
<path fill-rule="evenodd" clip-rule="evenodd" d="M16 16L26.8887 27.7222L26.5249 28.0516L16 16Z" fill="#5D91FF"/>
<path fill-rule="evenodd" clip-rule="evenodd" d="M16 16L26.5982 27.9855L26.2262 28.3059L16 16Z" fill="#5C90FF"/>
<path fill-rule="evenodd" clip-rule="evenodd" d="M16 16L26.3005 28.2416L25.9213 28.5529L16 16Z" fill="#5B90FF"/>
<path fill-rule="evenodd" clip-rule="evenodd" d="M16 16L25.9973 28.4914L25.61 28.7928L16 16Z" fill="#5A8FFF"/>
<path fill-rule="evenodd" clip-rule="evenodd" d="M16 16L25.6878 28.733L25.2932 29.0253L16 16Z" fill="#598EFF"/>
<path fill-rule="evenodd" clip-rule="evenodd" d="M16 16L25.3719 28.9665L24.971 29.2489L16 16Z" fill="#588EFF"/>
<path fill-rule="evenodd" clip-rule="evenodd" d="M16 16L25.0516 29.1928L24.6425 29.4652L16 16Z" fill="#578DFF"/>
<path fill-rule="evenodd" clip-rule="evenodd" d="M16 16L24.7249 29.4109L24.3095 29.6733L16 16Z" fill="#568CFF"/>
<path fill-rule="evenodd" clip-rule="evenodd" d="M16 16L24.3928 29.6208L23.9719 29.8733L16 16Z" fill="#558CFF"/>
<path fill-rule="evenodd" clip-rule="evenodd" d="M16 16L24.0561 29.8226L23.629 30.0643L16 16Z" fill="#548BFF"/>
<path fill-rule="evenodd" clip-rule="evenodd" d="M16 16L23.714 30.0163L23.2815 30.2471L16 16Z" fill="#538AFF"/>
<path fill-rule="evenodd" clip-rule="evenodd" d="M16 16L23.3683 30.2009L22.9294 30.4217L16 16Z" fill="#528AFF"/>
<path fill-rule="evenodd" clip-rule="evenodd" d="M16 16L23.0172 30.3783L22.5738 30.5873L16 16Z" fill="#5189FF"/>
<path fill-rule="evenodd" clip-rule="evenodd" d="M16 16L22.6624 30.5457L22.2136 30.7448L16 16Z" fill="#5088FF"/>
<path fill-rule="evenodd" clip-rule="evenodd" d="M16 16L22.3032 30.705L21.8498 30.8923L16 16Z" fill="#4F88FF"/>
<path fill-rule="evenodd" clip-rule="evenodd" d="M16 16L21.9403 30.8552L21.4824 31.0317L16 16Z" fill="#4E87FF"/>
<path fill-rule="evenodd" clip-rule="evenodd" d="M16 16L21.5747 30.9964L21.1122 31.162L16 16Z" fill="#4D86FF"/>
<path fill-rule="evenodd" clip-rule="evenodd" d="M16 16L21.2045 31.1285L20.7385 31.2824L16 16Z" fill="#4C86FF"/>
<path fill-rule="evenodd" clip-rule="evenodd" d="M16 16L20.8317 31.2516L20.362 31.3946L16 16Z" fill="#4B85FF"/>
<path fill-rule="evenodd" clip-rule="evenodd" d="M16 16L20.4561 31.3656L19.9828 31.4968L16 16Z" fill="#4A84FF"/>
<path fill-rule="evenodd" clip-rule="evenodd" d="M16 16L20.0778 31.4706L19.6009 31.59L16 16Z" fill="#4984FF"/>
<path fill-rule="evenodd" clip-rule="evenodd" d="M16 16L19.6968 31.5665L19.2181 31.6733L16 16Z" fill="#4883FF"/>
<path fill-rule="evenodd" clip-rule="evenodd" d="M16 16L19.3131 31.6516L18.8317 31.7475L16 16Z" fill="#4782FF"/>
<path fill-rule="evenodd" clip-rule="evenodd" d="M16 16L18.9285 31.7285L18.4452 31.8127L16 16Z" fill="#4681FF"/>
<path fill-rule="evenodd" clip-rule="evenodd" d="M16 16L18.5412 31.7955L18.0561 31.8679L16 16Z" fill="#4581FF"/>
<path fill-rule="evenodd" clip-rule="evenodd" d="M16 16L18.1529 31.8534L17.6661 31.9131L16 16Z" fill="#4480FF"/>
<path fill-rule="evenodd" clip-rule="evenodd" d="M16 16L17.7629 31.9014L17.2751 31.9493L16 16Z" fill="#437FFF"/>
<path fill-rule="evenodd" clip-rule="evenodd" d="M16 16L17.3729 31.9403L16.8833 31.9765L16 16Z" fill="#427FFF"/>
<path fill-rule="evenodd" clip-rule="evenodd" d="M16 16L16.981 31.9692L16.4905 31.9928L16 16Z" fill="#417EFF"/>
<path fill-rule="evenodd" clip-rule="evenodd" d="M16 16L16.5891 31.9882L16.0977 32L16 16Z" fill="#407DFF"/>
<path fill-rule="evenodd" clip-rule="evenodd" d="M16 16L16.1964 31.9973H15.705L16 16Z" fill="#3F7DFF"/>
<path fill-rule="evenodd" clip-rule="evenodd" d="M16 16L15.8036 31.9973L15.3131 31.9855L16 16Z" fill="#3E7CFF"/>
<path fill-rule="evenodd" clip-rule="evenodd" d="M16 16L15.4109 31.9882L14.9204 31.9638L16 16Z" fill="#3D7BFF"/>
<path fill-rule="evenodd" clip-rule="evenodd" d="M16 16L15.019 31.9692L14.5294 31.933L16 16Z" fill="#3C7BFF"/>
<path fill-rule="evenodd" clip-rule="evenodd" d="M16 16L14.6272 31.9403L14.1385 31.8923L16 16Z" fill="#3B7AFF"/>
<path fill-rule="evenodd" clip-rule="evenodd" d="M16 16L14.2362 31.9014L13.7493 31.8416L16 16Z" fill="#3A79FF"/>
<path fill-rule="evenodd" clip-rule="evenodd" d="M16 16L13.8471 31.8534L13.3611 31.781L16 16Z" fill="#3979FF"/>
<path fill-rule="evenodd" clip-rule="evenodd" d="M16 16L13.4579 31.7955L12.9747 31.7122L16 16Z" fill="#3878FF"/>
<path fill-rule="evenodd" clip-rule="evenodd" d="M16 16L13.0715 31.7285L12.59 31.6326L16 16Z" fill="#3777FF"/>
<path fill-rule="evenodd" clip-rule="evenodd" d="M16 16L12.6869 31.6516L12.2072 31.5448L16 16Z" fill="#3677FF"/>
<path fill-rule="evenodd" clip-rule="evenodd" d="M16 16L12.3032 31.5665L11.8272 31.4471L16 16Z" fill="#3576FF"/>
<path fill-rule="evenodd" clip-rule="evenodd" d="M16 16L11.9222 31.4706L11.4489 31.3403L16 16Z" fill="#3475FF"/>
<path fill-rule="evenodd" clip-rule="evenodd" d="M16 16L11.5439 31.3656L11.0742 31.2235L16 16Z" fill="#3375FF"/>
<path fill-rule="evenodd" clip-rule="evenodd" d="M16 16L11.1683 31.2516L10.7023 31.0977L16 16Z" fill="#3274FF"/>
<path fill-rule="evenodd" clip-rule="evenodd" d="M16 16L10.7955 31.1285L10.333 30.9638L16 16Z" fill="#3173FF"/>
<path fill-rule="evenodd" clip-rule="evenodd" d="M16 16L10.4253 30.9964L9.96742 30.8199L16 16Z" fill="#3073FF"/>
<path fill-rule="evenodd" clip-rule="evenodd" d="M16 16L10.0588 30.8552L9.60543 30.667L16 16Z" fill="#2F72FF"/>
<path fill-rule="evenodd" clip-rule="evenodd" d="M16 16L9.69593 30.705L9.24796 30.5059L16 16Z" fill="#2E71FF"/>
<path fill-rule="evenodd" clip-rule="evenodd" d="M16 16L9.33756 30.5457L8.89412 30.3357L16 16Z" fill="#2D71FF"/>
<path fill-rule="evenodd" clip-rule="evenodd" d="M16 16L8.98281 30.3783L8.54389 30.1575L16 16Z" fill="#2C70FF"/>
<path fill-rule="evenodd" clip-rule="evenodd" d="M16 16L8.63167 30.2009L8.1991 29.9701L16 16Z" fill="#2B6FFF"/>
<path fill-rule="evenodd" clip-rule="evenodd" d="M16 16L8.28597 30.0163L7.85792 29.7747L16 16Z" fill="#2A6EFF"/>
<path fill-rule="evenodd" clip-rule="evenodd" d="M16 16L7.94389 29.8226L7.52308 29.5701L16 16Z" fill="#296EFF"/>
<path fill-rule="evenodd" clip-rule="evenodd" d="M16 16L7.60724 29.6208L7.19186 29.3584L16 16Z" fill="#286DFF"/>
<path fill-rule="evenodd" clip-rule="evenodd" d="M16 16L7.27511 29.4109L6.86697 29.1376L16 16Z" fill="#276CFF"/>
<path fill-rule="evenodd" clip-rule="evenodd" d="M16 16L6.94842 29.1928L6.54751 28.9104L16 16Z" fill="#266CFF"/>
<path fill-rule="evenodd" clip-rule="evenodd" d="M16 16L6.62805 28.9665L6.23348 28.6742L16 16Z" fill="#256BFF"/>
<path fill-rule="evenodd" clip-rule="evenodd" d="M16 16L6.31222 28.733L5.92489 28.4308L16 16Z" fill="#246AFF"/>
<path fill-rule="evenodd" clip-rule="evenodd" d="M16 16L6.00272 28.4914L5.62353 28.1801L16 16Z" fill="#236AFF"/>
<path fill-rule="evenodd" clip-rule="evenodd" d="M16 16L5.69955 28.2416L5.3276 27.9213L16 16Z" fill="#2269FF"/>
<path fill-rule="evenodd" clip-rule="evenodd" d="M16 16L5.40181 27.9855L5.03801 27.6561L16 16Z" fill="#2168FF"/>
<path fill-rule="evenodd" clip-rule="evenodd" d="M16 16L5.11131 27.7222L4.75566 27.3837L16 16Z" fill="#2068FF"/>
<path fill-rule="evenodd" clip-rule="evenodd" d="M16 16L4.82715 27.4507L4.47964 27.1041L16 16Z" fill="#1F67FF"/>
<path fill-rule="evenodd" clip-rule="evenodd" d="M16 16L4.54842 27.1729L4.21086 26.8181L16 16Z" fill="#1E66FF"/>
<path fill-rule="evenodd" clip-rule="evenodd" d="M16 16L4.27783 26.8887L3.94842 26.5249L16 16Z" fill="#1D66FF"/>
<path fill-rule="evenodd" clip-rule="evenodd" d="M16 16L4.01448 26.5982L3.69412 26.2262L16 16Z" fill="#1C65FF"/>
<path fill-rule="evenodd" clip-rule="evenodd" d="M16 16L3.75837 26.3005L3.44706 25.9213L16 16Z" fill="#1B64FF"/>
<path fill-rule="evenodd" clip-rule="evenodd" d="M16 16L3.5086 25.9973L3.20724 25.61L16 16Z" fill="#1A64FF"/>
<path fill-rule="evenodd" clip-rule="evenodd" d="M16 16L3.26697 25.6878L2.97466 25.2932L16 16Z" fill="#1963FF"/>
<path fill-rule="evenodd" clip-rule="evenodd" d="M16 16L3.03348 25.3719L2.75113 24.971L16 16Z" fill="#1862FF"/>
<path fill-rule="evenodd" clip-rule="evenodd" d="M16 16L2.80724 25.0516L2.53484 24.6425L16 16Z" fill="#1762FF"/>
<path fill-rule="evenodd" clip-rule="evenodd" d="M16 16L2.58914 24.7249L2.3267 24.3095L16 16Z" fill="#1661FF"/>
<path fill-rule="evenodd" clip-rule="evenodd" d="M16 16L2.37919 24.3928L2.1267 23.9719L16 16Z" fill="#1560FF"/>
<path fill-rule="evenodd" clip-rule="evenodd" d="M16 16L2.17738 24.0561L1.93575 23.629L16 16Z" fill="#1460FF"/>
<path fill-rule="evenodd" clip-rule="evenodd" d="M16 16L1.98371 23.714L1.75204 23.2815L16 16Z" fill="#135FFF"/>
<path fill-rule="evenodd" clip-rule="evenodd" d="M16 16L1.79819 23.3683L1.57828 22.9294L16 16Z" fill="#125EFF"/>
<path fill-rule="evenodd" clip-rule="evenodd" d="M16 16L1.62172 23.0172L1.41267 22.5738L16 16Z" fill="#115EFF"/>
<path fill-rule="evenodd" clip-rule="evenodd" d="M16 16L1.4543 22.6624L1.2552 22.2136L16 16Z" fill="#105DFF"/>
<path fill-rule="evenodd" clip-rule="evenodd" d="M16 16L1.29502 22.3032L1.10679 21.8498L16 16Z" fill="#0F5CFF"/>
<path fill-rule="evenodd" clip-rule="evenodd" d="M16 16L1.1448 21.9403L0.968326 21.4824L16 16Z" fill="#0E5BFF"/>
<path fill-rule="evenodd" clip-rule="evenodd" d="M16 16L1.00362 21.5747L0.838009 21.1122L16 16Z" fill="#0D5BFF"/>
<path fill-rule="evenodd" clip-rule="evenodd" d="M16 16L0.870588 21.2045L0.717647 20.7385L16 16Z" fill="#0C5AFF"/>
<path fill-rule="evenodd" clip-rule="evenodd" d="M16 16L0.747511 20.8317L0.60543 20.362L16 16Z" fill="#0B59FF"/>
<path fill-rule="evenodd" clip-rule="evenodd" d="M16 16L0.633484 20.4561L0.503168 19.9828L16 16Z" fill="#0A59FF"/>
<path fill-rule="evenodd" clip-rule="evenodd" d="M16 16L0.529412 20.0778L0.409955 19.6009L16 16Z" fill="#0958FF"/>
<path fill-rule="evenodd" clip-rule="evenodd" d="M16 16L0.433484 19.6968L0.326697 19.2181L16 16Z" fill="#0857FF"/>
<path fill-rule="evenodd" clip-rule="evenodd" d="M16 16L0.347511 19.3131L0.252489 18.8317L16 16Z" fill="#0757FF"/>
<path fill-rule="evenodd" clip-rule="evenodd" d="M16 16L0.271493 18.9285L0.18733 18.4452L16 16Z" fill="#0656FF"/>
<path fill-rule="evenodd" clip-rule="evenodd" d="M16 16L0.204525 18.5412L0.132127 18.0561L16 16Z" fill="#0555FF"/>
<path fill-rule="evenodd" clip-rule="evenodd" d="M16 16L0.146606 18.1529L0.0868779 17.6661L16 16Z" fill="#0455FF"/>
<path fill-rule="evenodd" clip-rule="evenodd" d="M16 16L0.0986425 17.7629L0.0506785 17.2751L16 16Z" fill="#0354FF"/>
<path fill-rule="evenodd" clip-rule="evenodd" d="M16 16L0.0597286 17.3729L0.0235292 16.8833L16 16Z" fill="#0253FF"/>
<path fill-rule="evenodd" clip-rule="evenodd" d="M16 16L0.0307695 16.981L0.00723971 16.4905L16 16Z" fill="#0153FF"/>
<path fill-rule="evenodd" clip-rule="evenodd" d="M16 16L0.0117646 16.5891L0 16.0977L16 16Z" fill="#0052FF"/>
<path fill-rule="evenodd" clip-rule="evenodd" d="M16 16L0.00181007 16.1964V15.8036L16 16Z" fill="white"/>
</svg>
