<svg width="32" height="32" viewBox="0 0 32 32" fill="none" xmlns="http://www.w3.org/2000/svg">
<path d="M31.5212 19.8705C29.3841 28.442 20.7016 33.6584 12.1281 31.521C3.55818 29.3841 -1.65886 20.702 0.47923 12.1312C2.61545 3.5587 11.298 -1.65814 19.8688 0.478775C28.4417 2.61569 33.6586 11.2986 31.5212 19.8705Z" fill="#F7931A"/>
<path d="M23.0561 13.7204C23.3746 11.5911 21.7533 10.4466 19.5364 9.68306L20.2556 6.7988L18.4996 6.36131L17.7995 9.16963C17.3379 9.05451 16.8639 8.94604 16.3927 8.83851L17.0979 6.01165L15.343 5.57416L14.6235 8.45748C14.2415 8.37052 13.8663 8.28457 13.5022 8.19401L13.5043 8.18493L11.0828 7.58032L10.6157 9.45555C10.6157 9.45555 11.9185 9.75415 11.891 9.77253C12.6021 9.94998 12.7306 10.4206 12.7093 10.7937L11.8901 14.0795C11.939 14.092 12.0025 14.1099 12.0726 14.1381C12.014 14.1235 11.9517 14.1077 11.887 14.0922L10.7387 18.6952C10.6518 18.9112 10.4313 19.2354 9.93413 19.1123C9.95173 19.1378 8.65789 18.7938 8.65789 18.7938L7.78611 20.8036L10.0712 21.3731C10.4963 21.4797 10.9128 21.5913 11.3231 21.6961L10.5965 24.6135L12.3504 25.051L13.0699 22.1646C13.5491 22.2946 14.0141 22.4146 14.4693 22.5277L13.7521 25.4005L15.5081 25.8379L16.2347 22.9261C19.2289 23.4927 21.4804 23.2642 22.428 20.5563C23.1916 18.376 22.39 17.1185 20.8147 16.2984C21.9621 16.0338 22.8257 15.279 23.0561 13.7204ZM19.0442 19.3455C18.5015 21.5257 14.8303 20.3471 13.64 20.0516L14.6042 16.1866C15.7944 16.4837 19.6112 17.0717 19.0442 19.3455ZM19.5872 13.6888C19.0922 15.672 16.0366 14.6644 15.0453 14.4174L15.9196 10.9121C16.9108 11.1591 20.1027 11.6202 19.5872 13.6888Z" fill="white"/>
</svg>
